<?xml version='1.0' encoding='utf-8'?>
<svg xmlns="http://www.w3.org/2000/svg" version="1.1" id="Layer_1" x="0px" y="0px" viewBox="0 0 1659.098 1659.098" enable-background="new 0 0 1659.098 1659.098"> <g> <radialGradient id="SVGID_1_" cx="474.5929" cy="764.0123" r="359.7686" gradientUnits="userSpaceOnUse"> <stop offset="0" style="stop-color:#FFFFFF"/> <stop offset="0.0546" style="stop-color:#FDE8E8"/> <stop offset="0.1819" style="stop-color:#F8B6B7"/> <stop offset="0.3125" style="stop-color:#F48C8D"/> <stop offset="0.4442" style="stop-color:#F16A6B"/> <stop offset="0.5775" style="stop-color:#EE4F50"/> <stop offset="0.713" style="stop-color:#EC3C3D"/> <stop offset="0.852" style="stop-color:#EB3132"/> <stop offset="1" style="stop-color:#EB2D2E"/> </radialGradient> <path fill="url(#SVGID_1_)" d="M58.559,1050.314C139.511,657.386,499.343,412.8,890.627,483.157 C506.464,426.711,159.884,671.82,93.324,1056.899L58.559,1050.314z"/> <radialGradient id="SVGID_2_" cx="490.8929" cy="689.272" r="365.029" gradientUnits="userSpaceOnUse"> <stop offset="0.0056" style="stop-color:#E6F3E9"/> <stop offset="0.4494" style="stop-color:#C9E6D2"/> <stop offset="1" style="stop-color:#ACDABB"/> </radialGradient> <path fill="url(#SVGID_2_)" d="M31.936,913.079C179.89,540.178,576.728,361.792,949.849,499.026 C581.324,376.727,197.447,557.93,65.03,925.601L31.936,913.079z"/> <radialGradient id="SVGID_3_" cx="517.4828" cy="607.96" r="368.5945" gradientUnits="userSpaceOnUse"> <stop offset="0" style="stop-color:#FFFFFF"/> <stop offset="0.0546" style="stop-color:#FDE8E8"/> <stop offset="0.1819" style="stop-color:#F8B6B7"/> <stop offset="0.3125" style="stop-color:#F48C8D"/> <stop offset="0.4442" style="stop-color:#F16A6B"/> <stop offset="0.5775" style="stop-color:#EE4F50"/> <stop offset="0.713" style="stop-color:#EC3C3D"/> <stop offset="0.852" style="stop-color:#EB3132"/> <stop offset="1" style="stop-color:#EB2D2E"/> </radialGradient> <path fill="url(#SVGID_3_)" d="M29.549,773.306c210.459-341.544,632.245-448.31,975.868-248.369 c-341.69-184.434-751.2-72.644-945.451,266.447L29.549,773.306z"/> <radialGradient id="SVGID_4_" cx="553.5546" cy="522.7142" r="367.7503" gradientUnits="userSpaceOnUse"> <stop offset="0" style="stop-color:#FFFBCC"/> <stop offset="0.1146" style="stop-color:#FBF2BB"/> <stop offset="0.3413" style="stop-color:#F0D98E"/> <stop offset="0.3708" style="stop-color:#EED688"/> <stop offset="0.6854" style="stop-color:#EBBB10"/> <stop offset="1" style="stop-color:#C3922E"/> </radialGradient> <path fill="url(#SVGID_4_)" d="M51.469,635.242c266.57-299.809,700.488-331.711,1004.171-75.138 C751.168,319.138,328.467,358.119,78.285,658.327L51.469,635.242z"/> <radialGradient id="SVGID_5_" cx="598.0125" cy="472.6621" r="366.1215" gradientUnits="userSpaceOnUse"> <stop offset="0" style="stop-color:#FFFFFF"/> <stop offset="0.0205" style="stop-color:#F4FBFE"/> <stop offset="0.1353" style="stop-color:#BCE8F6"/> <stop offset="0.2536" style="stop-color:#8AD7F0"/> <stop offset="0.3728" style="stop-color:#5FC9EA"/> <stop offset="0.493" style="stop-color:#3DBDE6"/> <stop offset="0.6147" style="stop-color:#22B4E2"/> <stop offset="0.7382" style="stop-color:#0FADE0"/> <stop offset="0.865" style="stop-color:#04A9DE"/> <stop offset="1" style="stop-color:#00A8DE"/> </radialGradient> <path fill="url(#SVGID_5_)" d="M97.031,503.082c314.582-248.965,747.447-205.033,1001.963,100.376 c-258.003-290.176-681.051-325.189-979.563-72.985L97.031,503.082z"/> <radialGradient id="SVGID_6_" cx="649.5053" cy="471.9017" r="366.0154" gradientUnits="userSpaceOnUse"> <stop offset="0" style="stop-color:#FFFFFF"/> <stop offset="0.1102" style="stop-color:#CBE2F0"/> <stop offset="0.239" style="stop-color:#96C5E1"/> <stop offset="0.3696" style="stop-color:#68ABD3"/> <stop offset="0.4992" style="stop-color:#4396C8"/> <stop offset="0.6276" style="stop-color:#2586C0"/> <stop offset="0.7546" style="stop-color:#117ABA"/> <stop offset="0.8795" style="stop-color:#0473B6"/> <stop offset="1" style="stop-color:#0071B5"/> </radialGradient> <path fill="url(#SVGID_6_)" d="M164.85,380.841c353.035-190.556,771.695-72.126,969.311,272.84 C930.466,323.112,519.924,215.17,182.153,411.706L164.85,380.841z"/> <radialGradient id="SVGID_7_" cx="706.4688" cy="471.2148" r="362.2263" gradientUnits="userSpaceOnUse"> <stop offset="0" style="stop-color:#CCDDF2"/> <stop offset="0.5" style="stop-color:#ACCAEA"/> <stop offset="0.5724" style="stop-color:#A7C8E9"/> <stop offset="1" style="stop-color:#90BBE4"/> </radialGradient> <path fill="url(#SVGID_7_)" d="M252.866,272.234c380.761-126.357,772.496,62.974,907.206,437.014 C1016.875,348.33,631.314,170.738,264.546,305.635L252.866,272.234z"/> <radialGradient id="SVGID_8_" cx="767.1719" cy="470.3645" r="357.7423" gradientUnits="userSpaceOnUse"> <stop offset="0" style="stop-color:#FFFFFF"/> <stop offset="0.0483" style="stop-color:#FDF4EA"/> <stop offset="0.1764" style="stop-color:#F9D9B9"/> <stop offset="0.3078" style="stop-color:#F6C18F"/> <stop offset="0.4404" style="stop-color:#F3AE6D"/> <stop offset="0.5746" style="stop-color:#F1A052"/> <stop offset="0.711" style="stop-color:#EF953F"/> <stop offset="0.851" style="stop-color:#EE8F34"/> <stop offset="1" style="stop-color:#EE8D30"/> </radialGradient> <path fill="url(#SVGID_8_)" d="M358.403,180.561c396.918-58.319,749.825,196.159,817.537,587.91 c-78.349-380.302-427.213-622.147-811.834-552.988L358.403,180.561z"/> <radialGradient id="SVGID_9_" cx="829.549" cy="469.0781" r="356.132" gradientUnits="userSpaceOnUse"> <stop offset="0" style="stop-color:#FFFFFF"/> <stop offset="0.1104" style="stop-color:#D9DEEC"/> <stop offset="0.2506" style="stop-color:#AFB9D8"/> <stop offset="0.3942" style="stop-color:#8D9BC7"/> <stop offset="0.5395" style="stop-color:#7284BA"/> <stop offset="0.6871" style="stop-color:#5F73B0"/> <stop offset="0.8386" style="stop-color:#5469AB"/> <stop offset="1" style="stop-color:#5066A9"/> </radialGradient> <path fill="url(#SVGID_9_)" d="M478.257,108.607c401.015,11.491,704.371,323.385,703.028,720.942 c-11.12-388.129-312.688-686.88-703.475-685.561L478.257,108.607z"/> <radialGradient id="SVGID_10_" cx="895.0857" cy="474.5929" r="359.7686" gradientUnits="userSpaceOnUse"> <stop offset="0.1798" style="stop-color:#F4E8D9"/> <stop offset="0.5899" style="stop-color:#EDD089"/> <stop offset="1" style="stop-color:#C08329"/> </radialGradient> <path fill="url(#SVGID_10_)" d="M608.784,58.559c392.928,80.952,637.514,440.785,567.157,832.068 c56.447-384.163-188.662-730.743-573.741-797.303L608.784,58.559z"/> <radialGradient id="SVGID_11_" cx="969.8259" cy="490.8929" r="365.029" gradientUnits="userSpaceOnUse"> <stop offset="0" style="stop-color:#77C697"/> <stop offset="0.2573" style="stop-color:#38BC80"/> <stop offset="0.5" style="stop-color:#00B36C"/> <stop offset="0.5432" style="stop-color:#00B269"/> <stop offset="1" style="stop-color:#00A652"/> </radialGradient> <path fill="url(#SVGID_11_)" d="M746.019,31.936c372.901,147.953,551.288,544.791,414.053,917.913 c122.298-368.525-58.904-752.402-426.575-884.819L746.019,31.936z"/> <radialGradient id="SVGID_12_" cx="1051.1379" cy="517.4828" r="368.5945" gradientUnits="userSpaceOnUse"> <stop offset="0" style="stop-color:#E5E2DF"/> <stop offset="0" style="stop-color:#F1EFEE"/> <stop offset="0" style="stop-color:#FFFFFF"/> <stop offset="0.1259" style="stop-color:#F0F0F1"/> <stop offset="0.3664" style="stop-color:#C9CACB"/> <stop offset="0.5225" style="stop-color:#ADAEB0"/> <stop offset="0.6029" style="stop-color:#A3A5A7"/> <stop offset="0.7382" style="stop-color:#898D90"/> <stop offset="0.9108" style="stop-color:#5F6769"/> <stop offset="1" style="stop-color:#465053"/> </radialGradient> <path fill="url(#SVGID_12_)" d="M885.792,29.549c341.544,210.459,448.31,632.245,248.369,975.868 c184.434-341.69,72.644-751.2-266.447-945.451L885.792,29.549z"/> <radialGradient id="SVGID_13_" cx="1136.3837" cy="553.5546" r="367.7503" gradientUnits="userSpaceOnUse"> <stop offset="0.1798" style="stop-color:#F4E8D9"/> <stop offset="0.5899" style="stop-color:#EDD089"/> <stop offset="1" style="stop-color:#C08329"/> </radialGradient> <path fill="url(#SVGID_13_)" d="M1023.856,51.469c299.809,266.57,331.711,700.488,75.138,1004.171 c240.966-304.472,201.985-727.173-98.223-977.355L1023.856,51.469z"/> <radialGradient id="SVGID_14_" cx="1186.4358" cy="598.0125" r="366.1215" gradientUnits="userSpaceOnUse"> <stop offset="0.0056" style="stop-color:#E6F3E9"/> <stop offset="0.4494" style="stop-color:#C9E6D2"/> <stop offset="1" style="stop-color:#ACDABB"/> </radialGradient> <path fill="url(#SVGID_14_)" d="M1156.016,97.031c248.965,314.582,205.033,747.447-100.376,1001.963 c290.176-258.003,325.189-681.051,72.985-979.563L1156.016,97.031z"/> <radialGradient id="SVGID_15_" cx="1187.1962" cy="649.5053" r="366.0154" gradientUnits="userSpaceOnUse"> <stop offset="0" style="stop-color:#FCF3DD"/> <stop offset="0" style="stop-color:#FDEDC1"/> <stop offset="0" style="stop-color:#FFE18A"/> <stop offset="0.5506" style="stop-color:#FFCD03"/> <stop offset="0.668" style="stop-color:#F7C50D"/> <stop offset="1" style="stop-color:#E2B124"/> </radialGradient> <path fill="url(#SVGID_15_)" d="M1278.257,164.85c190.556,353.035,72.126,771.695-272.84,969.311 c330.57-203.695,438.512-614.236,241.976-952.008L1278.257,164.85z"/> <radialGradient id="SVGID_16_" cx="1187.8831" cy="706.4688" r="362.2263" gradientUnits="userSpaceOnUse"> <stop offset="0" style="stop-color:#FCF3DD"/> <stop offset="0" style="stop-color:#FDEDC1"/> <stop offset="0" style="stop-color:#FFE18A"/> <stop offset="0.5506" style="stop-color:#FFCD03"/> <stop offset="0.668" style="stop-color:#F7C50D"/> <stop offset="1" style="stop-color:#E2B124"/> </radialGradient> <path fill="url(#SVGID_16_)" d="M1386.864,252.866c126.358,380.761-62.974,772.496-437.014,907.206 c360.919-143.197,538.511-528.758,403.614-895.526L1386.864,252.866z"/> <radialGradient id="SVGID_17_" cx="1188.7334" cy="767.1719" r="357.7423" gradientUnits="userSpaceOnUse"> <stop offset="0" style="stop-color:#FFFFFF"/> <stop offset="0.1175" style="stop-color:#D6ECEF"/> <stop offset="0.2566" style="stop-color:#ACD9E0"/> <stop offset="0.399" style="stop-color:#8AC9D3"/> <stop offset="0.5431" style="stop-color:#6FBDC9"/> <stop offset="0.6896" style="stop-color:#5CB4C2"/> <stop offset="0.8399" style="stop-color:#51AFBD"/> <stop offset="1" style="stop-color:#4DADBC"/> </radialGradient> <path fill="url(#SVGID_17_)" d="M1478.537,358.403c58.319,396.918-196.159,749.825-587.91,817.537 c380.302-78.349,622.148-427.213,552.988-811.834L1478.537,358.403z"/> <radialGradient id="SVGID_18_" cx="1190.0198" cy="829.549" r="356.132" gradientUnits="userSpaceOnUse"> <stop offset="0" style="stop-color:#FFFFFF"/> <stop offset="0.0047" style="stop-color:#FDFDFE"/> <stop offset="0.149" style="stop-color:#C9C8E1"/> <stop offset="0.295" style="stop-color:#9B9AC8"/> <stop offset="0.4399" style="stop-color:#7674B4"/> <stop offset="0.5835" style="stop-color:#5A57A4"/> <stop offset="0.7255" style="stop-color:#454399"/> <stop offset="0.8652" style="stop-color:#393692"/> <stop offset="1" style="stop-color:#353290"/> </radialGradient> <path fill="url(#SVGID_18_)" d="M1550.491,478.257c-11.491,401.015-323.385,704.371-720.942,703.028 c388.129-11.12,686.88-312.688,685.561-703.475L1550.491,478.257z"/> <radialGradient id="SVGID_19_" cx="1184.505" cy="895.0857" r="359.7686" gradientUnits="userSpaceOnUse"> <stop offset="0" style="stop-color:#FFF2DB"/> <stop offset="0.309" style="stop-color:#D7B189"/> <stop offset="0.7508" style="stop-color:#92562D"/> <stop offset="0.7809" style="stop-color:#8D5027"/> <stop offset="1" style="stop-color:#541513"/> </radialGradient> <path fill="url(#SVGID_19_)" d="M1600.539,608.784c-80.952,392.928-440.785,637.514-832.068,567.157 c384.164,56.447,730.743-188.662,797.303-573.741L1600.539,608.784z"/> <radialGradient id="SVGID_20_" cx="1168.2051" cy="969.8259" r="365.029" gradientUnits="userSpaceOnUse"> <stop offset="0" style="stop-color:#FFFBCC"/> <stop offset="0.1146" style="stop-color:#FBF2BB"/> <stop offset="0.3413" style="stop-color:#F0D98E"/> <stop offset="0.3708" style="stop-color:#EED688"/> <stop offset="0.6854" style="stop-color:#EBBB10"/> <stop offset="1" style="stop-color:#C3922E"/> </radialGradient> <path fill="url(#SVGID_20_)" d="M1627.162,746.019c-147.953,372.901-544.791,551.288-917.913,414.053 c368.525,122.298,752.402-58.904,884.819-426.575L1627.162,746.019z"/> <radialGradient id="SVGID_21_" cx="1141.6151" cy="1051.1379" r="368.5945" gradientUnits="userSpaceOnUse"> <stop offset="0.1798" style="stop-color:#F4E8D9"/> <stop offset="0.5899" style="stop-color:#EDD089"/> <stop offset="1" style="stop-color:#C08329"/> </radialGradient> <path fill="url(#SVGID_21_)" d="M1629.549,885.792c-210.459,341.544-632.245,448.31-975.868,248.369 c341.69,184.434,751.2,72.644,945.451-266.447L1629.549,885.792z"/> <radialGradient id="SVGID_22_" cx="1105.5433" cy="1136.3837" r="367.7503" gradientUnits="userSpaceOnUse"> <stop offset="0" style="stop-color:#F7977A"/> <stop offset="0.0711" style="stop-color:#F68D71"/> <stop offset="0.5" style="stop-color:#F1563C"/> <stop offset="0.745" style="stop-color:#DE3B34"/> <stop offset="1" style="stop-color:#CE242C"/> </radialGradient> <path fill="url(#SVGID_22_)" d="M1607.629,1023.856c-266.57,299.809-700.488,331.711-1004.171,75.138 c304.472,240.966,727.173,201.985,977.355-98.223L1607.629,1023.856z"/> <radialGradient id="SVGID_23_" cx="1061.0856" cy="1186.4358" r="366.1215" gradientUnits="userSpaceOnUse"> <stop offset="0" style="stop-color:#FFFFFF"/> <stop offset="0.0047" style="stop-color:#FDFDFE"/> <stop offset="0.149" style="stop-color:#C9C8E1"/> <stop offset="0.295" style="stop-color:#9B9AC8"/> <stop offset="0.4399" style="stop-color:#7674B4"/> <stop offset="0.5835" style="stop-color:#5A57A4"/> <stop offset="0.7255" style="stop-color:#454399"/> <stop offset="0.8652" style="stop-color:#393692"/> <stop offset="1" style="stop-color:#353290"/> </radialGradient> <path fill="url(#SVGID_23_)" d="M1562.067,1156.016c-314.582,248.965-747.447,205.033-1001.963-100.376 c258.003,290.176,681.052,325.189,979.563,72.985L1562.067,1156.016z"/> <radialGradient id="SVGID_24_" cx="1009.5926" cy="1187.1962" r="366.0154" gradientUnits="userSpaceOnUse"> <stop offset="0" style="stop-color:#E5E2DF"/> <stop offset="0" style="stop-color:#F1EFEE"/> <stop offset="0" style="stop-color:#FFFFFF"/> <stop offset="0.1259" style="stop-color:#F0F0F1"/> <stop offset="0.3664" style="stop-color:#C9CACB"/> <stop offset="0.5225" style="stop-color:#ADAEB0"/> <stop offset="0.6029" style="stop-color:#A3A5A7"/> <stop offset="0.7382" style="stop-color:#898D90"/> <stop offset="0.9108" style="stop-color:#5F6769"/> <stop offset="1" style="stop-color:#465053"/> </radialGradient> <path fill="url(#SVGID_24_)" d="M1494.248,1278.257c-353.035,190.556-771.695,72.126-969.311-272.84 c203.695,330.57,614.236,438.512,952.008,241.976L1494.248,1278.257z"/> <radialGradient id="SVGID_25_" cx="952.6292" cy="1187.8831" r="362.2263" gradientUnits="userSpaceOnUse"> <stop offset="0" style="stop-color:#FFFFFF"/> <stop offset="0.1102" style="stop-color:#CBE2F0"/> <stop offset="0.239" style="stop-color:#96C5E1"/> <stop offset="0.3696" style="stop-color:#68ABD3"/> <stop offset="0.4992" style="stop-color:#4396C8"/> <stop offset="0.6276" style="stop-color:#2586C0"/> <stop offset="0.7546" style="stop-color:#117ABA"/> <stop offset="0.8795" style="stop-color:#0473B6"/> <stop offset="1" style="stop-color:#0071B5"/> </radialGradient> <path fill="url(#SVGID_25_)" d="M1406.232,1386.864c-380.761,126.358-772.496-62.974-907.206-437.014 c143.197,360.919,528.758,538.511,895.526,403.614L1406.232,1386.864z"/> <radialGradient id="SVGID_26_" cx="891.926" cy="1188.7334" r="357.7423" gradientUnits="userSpaceOnUse"> <stop offset="0" style="stop-color:#FFFFFF"/> <stop offset="0.1403" style="stop-color:#FDF4CC"/> <stop offset="0.286" style="stop-color:#FCEA9F"/> <stop offset="0.4327" style="stop-color:#FAE279"/> <stop offset="0.5781" style="stop-color:#F9DC5C"/> <stop offset="0.722" style="stop-color:#F9D848"/> <stop offset="0.8635" style="stop-color:#F8D53B"/> <stop offset="1" style="stop-color:#F8D437"/> </radialGradient> <path fill="url(#SVGID_26_)" d="M1300.695,1478.537c-396.918,58.319-749.825-196.159-817.537-587.91 c78.349,380.302,427.213,622.148,811.834,552.988L1300.695,1478.537z"/> <radialGradient id="SVGID_27_" cx="829.549" cy="1190.0198" r="356.132" gradientUnits="userSpaceOnUse"> <stop offset="0" style="stop-color:#FFFFFF"/> <stop offset="0.0242" style="stop-color:#FAFCF8"/> <stop offset="0.1773" style="stop-color:#DBECCE"/> <stop offset="0.3338" style="stop-color:#C2DEAC"/> <stop offset="0.4922" style="stop-color:#AFD391"/> <stop offset="0.6532" style="stop-color:#A1CC7E"/> <stop offset="0.8184" style="stop-color:#99C773"/> <stop offset="0.9944" style="stop-color:#96C66F"/> </radialGradient> <path fill="url(#SVGID_27_)" d="M1180.841,1550.491C779.826,1539,476.471,1227.106,477.814,829.549 c11.12,388.129,312.688,686.88,703.475,685.561L1180.841,1550.491z"/> <radialGradient id="SVGID_28_" cx="764.0123" cy="1184.505" r="359.7686" gradientUnits="userSpaceOnUse"> <stop offset="0" style="stop-color:#FFFFFF"/> <stop offset="0.0242" style="stop-color:#FAFCF8"/> <stop offset="0.1773" style="stop-color:#DBECCE"/> <stop offset="0.3338" style="stop-color:#C2DEAC"/> <stop offset="0.4922" style="stop-color:#AFD391"/> <stop offset="0.6532" style="stop-color:#A1CC7E"/> <stop offset="0.8184" style="stop-color:#99C773"/> <stop offset="0.9944" style="stop-color:#96C66F"/> </radialGradient> <path fill="url(#SVGID_28_)" d="M1050.314,1600.539c-392.928-80.952-637.514-440.785-567.157-832.068 c-56.447,384.164,188.662,730.743,573.741,797.303L1050.314,1600.539z"/> <radialGradient id="SVGID_29_" cx="689.272" cy="1168.2051" r="365.029" gradientUnits="userSpaceOnUse"> <stop offset="0" style="stop-color:#FFFFFF"/> <stop offset="0.049" style="stop-color:#F6F0F6"/> <stop offset="0.199" style="stop-color:#DEC6DD"/> <stop offset="0.3524" style="stop-color:#CAA4C8"/> <stop offset="0.5077" style="stop-color:#BA89B8"/> <stop offset="0.6655" style="stop-color:#AF76AD"/> <stop offset="0.8275" style="stop-color:#A86BA6"/> <stop offset="1" style="stop-color:#A667A4"/> </radialGradient> <path fill="url(#SVGID_29_)" d="M913.079,1627.162c-372.901-147.953-551.288-544.791-414.053-917.913 c-122.299,368.525,58.904,752.402,426.575,884.819L913.079,1627.162z"/> <radialGradient id="SVGID_30_" cx="607.96" cy="1141.6151" r="368.5945" gradientUnits="userSpaceOnUse"> <stop offset="0" style="stop-color:#FFFFFF"/> <stop offset="0.0205" style="stop-color:#F4FBFE"/> <stop offset="0.1353" style="stop-color:#BCE8F6"/> <stop offset="0.2536" style="stop-color:#8AD7F0"/> <stop offset="0.3728" style="stop-color:#5FC9EA"/> <stop offset="0.493" style="stop-color:#3DBDE6"/> <stop offset="0.6147" style="stop-color:#22B4E2"/> <stop offset="0.7382" style="stop-color:#0FADE0"/> <stop offset="0.865" style="stop-color:#04A9DE"/> <stop offset="1" style="stop-color:#00A8DE"/> </radialGradient> <path fill="url(#SVGID_30_)" d="M773.306,1629.549c-341.544-210.459-448.31-632.245-248.369-975.868 c-184.434,341.69-72.644,751.2,266.447,945.451L773.306,1629.549z"/> <radialGradient id="SVGID_31_" cx="522.7142" cy="1105.5433" r="367.7503" gradientUnits="userSpaceOnUse"> <stop offset="0" style="stop-color:#FFFBCC"/> <stop offset="0.1146" style="stop-color:#FBF2BB"/> <stop offset="0.3413" style="stop-color:#F0D98E"/> <stop offset="0.3708" style="stop-color:#EED688"/> <stop offset="0.6854" style="stop-color:#EBBB10"/> <stop offset="1" style="stop-color:#C3922E"/> </radialGradient> <path fill="url(#SVGID_31_)" d="M635.242,1607.629c-299.809-266.57-331.711-700.488-75.138-1004.171 c-240.966,304.472-201.985,727.173,98.223,977.355L635.242,1607.629z"/> <radialGradient id="SVGID_32_" cx="472.6621" cy="1061.0856" r="366.1215" gradientUnits="userSpaceOnUse"> <stop offset="0" style="stop-color:#FFFFFF"/> <stop offset="0.0047" style="stop-color:#FDFDFE"/> <stop offset="0.149" style="stop-color:#C9C8E1"/> <stop offset="0.295" style="stop-color:#9B9AC8"/> <stop offset="0.4399" style="stop-color:#7674B4"/> <stop offset="0.5835" style="stop-color:#5A57A4"/> <stop offset="0.7255" style="stop-color:#454399"/> <stop offset="0.8652" style="stop-color:#393692"/> <stop offset="1" style="stop-color:#353290"/> </radialGradient> <path fill="url(#SVGID_32_)" d="M503.082,1562.067C254.117,1247.485,298.048,814.62,603.458,560.104 c-290.176,258.003-325.189,681.052-72.985,979.563L503.082,1562.067z"/> <radialGradient id="SVGID_33_" cx="471.9017" cy="1009.5926" r="366.0154" gradientUnits="userSpaceOnUse"> <stop offset="0" style="stop-color:#FCF3DD"/> <stop offset="0" style="stop-color:#FDEDC1"/> <stop offset="0" style="stop-color:#FFE18A"/> <stop offset="0.5506" style="stop-color:#FFCD03"/> <stop offset="0.668" style="stop-color:#F7C50D"/> <stop offset="1" style="stop-color:#E2B124"/> </radialGradient> <path fill="url(#SVGID_33_)" d="M380.841,1494.248c-190.556-353.035-72.126-771.695,272.84-969.311 c-330.57,203.695-438.512,614.236-241.976,952.008L380.841,1494.248z"/> <radialGradient id="SVGID_34_" cx="471.2148" cy="952.6292" r="362.2263" gradientUnits="userSpaceOnUse"> <stop offset="0" style="stop-color:#FFF2DB"/> <stop offset="0.309" style="stop-color:#D7B189"/> <stop offset="0.7508" style="stop-color:#92562D"/> <stop offset="0.7809" style="stop-color:#8D5027"/> <stop offset="1" style="stop-color:#541513"/> </radialGradient> <path fill="url(#SVGID_34_)" d="M272.234,1406.232c-126.357-380.761,62.974-772.496,437.014-907.206 c-360.919,143.197-538.511,528.758-403.614,895.526L272.234,1406.232z"/> <radialGradient id="SVGID_35_" cx="470.3645" cy="891.926" r="357.7423" gradientUnits="userSpaceOnUse"> <stop offset="0" style="stop-color:#FCF3DD"/> <stop offset="0" style="stop-color:#FDEDC1"/> <stop offset="0" style="stop-color:#FFE18A"/> <stop offset="0.5506" style="stop-color:#FFCD03"/> <stop offset="0.668" style="stop-color:#F7C50D"/> <stop offset="1" style="stop-color:#E2B124"/> </radialGradient> <path fill="url(#SVGID_35_)" d="M180.561,1300.695c-58.319-396.918,196.159-749.825,587.91-817.537 c-380.302,78.349-622.147,427.213-552.988,811.834L180.561,1300.695z"/> <radialGradient id="SVGID_36_" cx="469.0781" cy="829.549" r="356.132" gradientUnits="userSpaceOnUse"> <stop offset="0" style="stop-color:#B27867"/> <stop offset="0.5" style="stop-color:#8E4130"/> <stop offset="1" style="stop-color:#7A1E15"/> </radialGradient> <path fill="url(#SVGID_36_)" d="M108.607,1180.841c11.491-401.015,323.385-704.371,720.942-703.028 c-388.129,11.12-686.88,312.688-685.561,703.475L108.607,1180.841z"/> </g> </svg>